<svg xmlns="http://www.w3.org/2000/svg" viewBox="0 0 125 125"><defs><style>.cls-1{fill:#654ff0;}.cls-2{fill:#fff;}.cls-3{fill:none;}</style></defs><g id="Layer_2" data-name="Layer 2"><g id="Layer_1-2" data-name="Layer 1"><path class="cls-1" d="M115.76,8.22c-2.27,134,26.32,105.33-107.63,107.61V8.22c.12.55,42.58-1,41.47.57a12.34,12.34,0,1,0,24.66-.57Z"/><path class="cls-2" d="M30.7,37.76c2-.19,3.77-.38,5.43-.56a46.24,46.24,0,0,1,5.25-.28,35.12,35.12,0,0,1,6.6.63,17.67,17.67,0,0,1,5.88,2.2A12.24,12.24,0,0,1,58.06,44a13.08,13.08,0,0,1,1.62,6.83,14.43,14.43,0,0,1-.51,4A13.68,13.68,0,0,1,57.85,58a12.15,12.15,0,0,1-1.8,2.39,16,16,0,0,1-1.95,1.75l9.36,18.48c-1,.16-2,.27-3.15.36s-2.17.12-3.09.12-1.73,0-2.79-.12a25.59,25.59,0,0,1-2.79-.36L43.12,61l.54-.3a6.74,6.74,0,0,0,1.59-1.2,11.2,11.2,0,0,0,1.62-2,12.3,12.3,0,0,0,1.26-2.6,8.92,8.92,0,0,0,.51-3A5.35,5.35,0,0,0,47,47.49a6.31,6.31,0,0,0-4.14-1.39,7.2,7.2,0,0,0-1,.07,2.2,2.2,0,0,0-.54.12V80.61a32.43,32.43,0,0,1-5.22.54,32,32,0,0,1-5.34-.54Z"/><path class="cls-2" d="M76.6,62.49a22.31,22.31,0,0,1-3.93-1.86,12.59,12.59,0,0,1-3-2.55,10.67,10.67,0,0,1-2-3.4,13.22,13.22,0,0,1-.69-4.5,13.89,13.89,0,0,1,1.08-5.63,11.66,11.66,0,0,1,3-4.17,12.94,12.94,0,0,1,4.71-2.58A20.5,20.5,0,0,1,82,36.92a28.61,28.61,0,0,1,5.91.61A48.51,48.51,0,0,1,94,39.26a30.5,30.5,0,0,1-.87,4.24,26.23,26.23,0,0,1-1.59,4.34c-1-.43-2.26-.89-3.66-1.37a16.27,16.27,0,0,0-5.22-.72,9,9,0,0,0-1.83.17,5.67,5.67,0,0,0-1.56.58,3,3,0,0,0-1.11,1.08,3.23,3.23,0,0,0-.42,1.71,3,3,0,0,0,1.14,2.58,11.1,11.1,0,0,0,2.7,1.43l2.88,1.15q2.52,1,4.53,2.06A13.86,13.86,0,0,1,92.44,59a10.05,10.05,0,0,1,2.22,3.54,15.85,15.85,0,0,1-.33,10.74,11.9,11.9,0,0,1-3.27,4.38,15.11,15.11,0,0,1-5.31,2.82,24.45,24.45,0,0,1-7.23,1,32.85,32.85,0,0,1-6.57-.6,42.34,42.34,0,0,1-6.15-1.86,34,34,0,0,1,.84-4.47q.6-2.37,1.44-4.83a24.74,24.74,0,0,0,9.6,2.4,10.09,10.09,0,0,0,4.77-.93A3.35,3.35,0,0,0,84.16,68a3.53,3.53,0,0,0-.36-1.65,3.63,3.63,0,0,0-1-1.17,6,6,0,0,0-1.35-.81q-.75-.33-1.53-.63Z"/><rect class="cls-3" width="125" height="125"/></g></g></svg>